<svg xmlns="http://www.w3.org/2000/svg" viewBox="0 0 24 24" fill="currentColor"><path d="M12 2.2c3.2 0 3.6 0 4.9.1 1.2.1 1.8.3 2.2.4.6.2 1 .5 1.4.9.4.4.7.8.9 1.4.2.4.4 1 .4 2.2.1 1.3.1 1.7.1 4.9s0 3.6-.1 4.9c-.1 1.2-.3 1.8-.4 2.2-.2.6-.5 1-.9 1.4-.4.4-.8.7-1.4.9-.4.2-1 .4-2.2.4-1.3.1-1.7.1-4.9.1s-3.6 0-4.9-.1c-1.2-.1-1.8-.3-2.2-.4-.6-.2-1-.5-1.4-.9-.4-.4-.7-.8-.9-1.4-.2-.4-.4-1-.4-2.2C2.2 15.6 2.2 15.2 2.2 12s0-3.6.1-4.9c.1-1.2.3-1.8.4-2.2.2-.6.5-1 .9-1.4.4-.4.8-.7 1.4-.9.4-.2 1-.4 2.2-.4C8.4 2.2 8.8 2.2 12 2.2zm0 1.8c-3.1 0-3.5 0-4.7.1-1.1.1-1.7.2-2.1.4-.5.2-.9.4-1.3.8-.4.4-.6.8-.8 1.3-.2.4-.3 1-.4 2.1C2.6 8.5 2.6 8.9 2.6 12s0 3.5.1 4.7c.1 1.1.2 1.7.4 2.1.2.5.4.9.8 1.3.4.4.8.6 1.3.8.4.2 1 .3 2.1.4 1.2.1 1.6.1 4.7.1s3.5 0 4.7-.1c1.1-.1 1.7-.2 2.1-.4.5-.2.9-.4 1.3-.8.4-.4.6-.8.8-1.3.2-.4.3-1 .4-2.1.1-1.2.1-1.6.1-4.7s0-3.5-.1-4.7c-.1-1.1-.2-1.7-.4-2.1-.2-.5-.4-.9-.8-1.3-.4-.4-.8-.6-1.3-.8-.4-.2-1-.3-2.1-.4C15.5 4 15.1 4 12 4zm0 3.1a4.9 4.9 0 110 9.8 4.9 4.9 0 010-9.8zm0 1.8a3.1 3.1 0 100 6.2 3.1 3.1 0 000-6.2zm5.1-.3a1.15 1.15 0 110 2.3 1.15 1.15 0 010-2.3z"/></svg>